<svg xmlns="http://www.w3.org/2000/svg" version="1.1" xmlns:xlink="http://www.w3.org/1999/xlink" xmlns:svgjs="http://svgjs.com/svgjs" width="60" height="48"><svg width="60" height="48" viewBox="0 0 60 48" fill="none" xmlns="http://www.w3.org/2000/svg">
<path d="M0.764999 23.9333C0.764999 39.4667 9.565 48 30.0983 48C48.6983 48 58.0317 40.8667 59.2317 27.3333H47.0317C45.8983 34.9333 40.0317 37.9333 30.0983 37.9333C17.965 37.9333 12.765 33.5333 12.765 23.9333C12.765 14.4 17.8983 10.0667 30.0983 10.0667C40.0983 10.0667 45.8983 13 47.0317 20.5333H59.2317C58.0317 7.06667 48.6983 0 30.0983 0C9.565 0 0.764999 8.46667 0.764999 23.9333Z" fill="black"></path>
<path d="M40.765 24.025C40.765 18.2 37.465 15 29.765 15C22.79 15 19.29 17.675 18.84 22.75L23.415 22.75C23.84 19.9 26.04 18.775 29.765 18.775C34.315 18.775 36.265 20.425 36.265 24.025C36.265 27.6 34.34 29.225 29.765 29.225C26.015 29.225 23.84 28.125 23.415 25.3L18.84 25.3C19.29 30.35 22.79 33 29.765 33C37.465 33 40.765 29.825 40.765 24.025Z" fill="black"></path>
</svg><style>@media (prefers-color-scheme: light) { :root { filter: none; } }
</style></svg>