<svg width="100%" height="19" viewBox="0 0 184 19" xmlns="http://www.w3.org/2000/svg">
<path d="M48.04 18.36C51.448 18.36 53.632 17.016 54.592 14.352L54.856 13.56L52 12.552L51.712 13.32C51.16 14.808 49.936 15.552 48.04 15.552C45.568 15.552 44.2 14.328 44.2 12.12V6.816C44.2 4.608 45.568 3.408 48.04 3.408C49.96 3.408 51.208 4.152 51.712 5.616L51.976 6.384L54.856 5.4L54.568 4.608C53.608 1.944 51.448 0.599999 48.04 0.599999C43.648 0.599999 41.176 2.976 41.176 6.84V12.096C41.176 16.008 43.648 18.36 48.04 18.36ZM56.6956 18H59.4796V8.328C59.4796 8.16 59.5516 8.064 59.7196 8.04C60.3436 7.848 61.1116 7.752 61.9996 7.752H63.6076V5.208H62.0956C60.2956 5.256 58.8076 5.496 57.6316 5.928C56.8636 6.24 56.6956 6.528 56.6956 7.296V18ZM70.2691 18.36C72.7891 18.36 74.5171 17.592 75.4531 16.056L75.9331 15.264L73.5571 13.992L73.1011 14.688C72.5491 15.528 71.6131 15.96 70.2691 15.96C68.5171 15.96 67.5331 15.12 67.5331 13.56V12.672H75.8611V10.176C75.8611 7.272 73.9651 5.208 70.3171 5.208C66.6931 5.208 64.7491 7.032 64.7491 10.392V13.224C64.7491 16.368 66.5251 18.36 70.2691 18.36ZM70.3171 7.56C72.1411 7.56 73.0771 8.448 73.0771 10.008V10.536H67.5331V10.008C67.5331 8.448 68.5171 7.56 70.3171 7.56ZM77.4237 14.472C77.4237 17.136 78.6957 18.36 82.7757 18.36C84.6717 18.36 86.1117 18.144 87.0717 17.736L87.9597 17.352V10.152C87.9597 6.864 86.2317 5.208 82.8237 5.208C80.3757 5.208 78.7437 6.072 77.8557 7.704L77.4477 8.448L79.8477 9.456L80.2557 8.832C80.7597 8.064 81.5757 7.68 82.7757 7.68C84.5037 7.68 85.1757 8.496 85.1757 10.056V10.728C83.8077 10.656 83.0397 10.608 82.8717 10.608C78.9597 10.608 77.4237 11.616 77.4237 14.472ZM80.2557 14.448C80.2557 13.392 80.8317 12.888 82.5597 12.888C82.6077 12.888 83.4957 12.936 85.1757 13.008V15.816L84.9117 15.864C84.3357 15.96 83.5197 16.056 82.5117 16.056C80.7357 16.056 80.2557 15.528 80.2557 14.448ZM89.2473 8.136H91.6233V13.056C91.6233 16.536 92.6313 18.216 96.2313 18.336H97.8873V15.72H97.1193C95.0073 15.72 94.4073 15.24 94.4073 12.96V8.136H97.8873V5.568H94.4073V2.688H91.6233V5.568H89.2473V8.136ZM104.863 18.36C108.415 18.36 110.407 16.56 110.407 13.56V10.008C110.407 7.008 108.415 5.208 104.863 5.208C101.335 5.208 99.3434 7.008 99.3434 10.008V13.56C99.3434 16.56 101.335 18.36 104.863 18.36ZM104.863 7.728C106.615 7.728 107.623 8.544 107.623 10.008V13.56C107.623 15 106.615 15.84 104.863 15.84C103.111 15.84 102.127 15 102.127 13.56V10.008C102.127 8.544 103.111 7.728 104.863 7.728ZM112.735 18H115.519V8.328C115.519 8.16 115.591 8.064 115.759 8.04C116.383 7.848 117.151 7.752 118.039 7.752H119.647V5.208H118.135C116.335 5.256 114.847 5.496 113.671 5.928C112.903 6.24 112.735 6.528 112.735 7.296V18ZM120.668 15.456C121.46 17.376 123.188 18.36 126.02 18.36C129.332 18.36 131.204 16.776 131.204 14.352C131.204 11.664 129.572 10.8 126.308 10.488C124.22 10.296 123.5 10.056 123.5 9C123.5 8.136 124.244 7.704 125.756 7.704C127.004 7.704 127.868 8.112 128.348 8.952L128.684 9.552L131.18 8.544L130.82 7.776C129.956 6.072 128.252 5.208 125.684 5.208C122.444 5.208 120.74 6.696 120.74 9.072C120.74 12.144 123.092 12.672 125.588 12.936C127.724 13.152 128.468 13.416 128.468 14.472C128.468 15.408 127.604 15.888 125.924 15.888C124.484 15.888 123.596 15.456 123.212 14.568L122.924 13.896L120.356 14.688L120.668 15.456ZM145.212 18.36C148.62 18.36 150.804 17.016 151.764 14.352L152.028 13.56L149.172 12.552L148.884 13.32C148.332 14.808 147.108 15.552 145.212 15.552C142.74 15.552 141.372 14.328 141.372 12.12V6.816C141.372 4.608 142.74 3.408 145.212 3.408C147.132 3.408 148.38 4.152 148.884 5.616L149.148 6.384L152.028 5.4L151.74 4.608C150.78 1.944 148.62 0.599999 145.212 0.599999C140.82 0.599999 138.348 2.976 138.348 6.84V12.096C138.348 16.008 140.82 18.36 145.212 18.36ZM156.771 18V0.24H153.987V18H156.771ZM164.53 18.36C166.258 18.36 167.818 18.072 169.234 17.52L170.17 17.16V5.568H167.386V15.456L167.122 15.528C166.474 15.696 165.754 15.816 164.914 15.816C163.162 15.816 162.298 15.024 162.298 13.44V5.568H159.514V13.536C159.514 16.656 161.17 18.36 164.53 18.36ZM172.852 0.24V17.232L173.74 17.616C174.94 18.144 176.38 18.36 178.084 18.36C181.708 18.36 183.508 16.68 183.508 13.272V10.032C183.508 6.816 181.852 5.208 178.516 5.208C177.772 5.208 176.812 5.352 175.636 5.616V0.24H172.852ZM175.636 15.48V8.184C176.5 7.896 177.316 7.752 178.108 7.752C179.812 7.752 180.724 8.616 180.724 10.104V13.2C180.724 14.952 179.788 15.816 177.892 15.816C177.052 15.816 176.38 15.768 175.828 15.552L175.636 15.48Z" fill="black"/>
<path d="M0 8.975C0 14.8 3.3 18 11 18C17.975 18 21.475 15.325 21.925 10.25H17.35C16.925 13.1 14.725 14.225 11 14.225C6.45 14.225 4.5 12.575 4.5 8.975C4.5 5.4 6.425 3.775 11 3.775C14.75 3.775 16.925 4.875 17.35 7.7H21.925C21.475 2.65 17.975 0 11 0C3.3 0 0 3.175 0 8.975Z" fill="black"/>
<path d="M15 9.00937C15 6.825 13.7625 5.625 10.875 5.625C8.25938 5.625 6.94688 6.62812 6.77813 8.53125L8.49375 8.53125C8.65313 7.4625 9.47813 7.04063 10.875 7.04063C12.5813 7.04063 13.3125 7.65938 13.3125 9.00937C13.3125 10.35 12.5906 10.9594 10.875 10.9594C9.46875 10.9594 8.65312 10.5469 8.49375 9.4875L6.77813 9.4875C6.94688 11.3812 8.25938 12.375 10.875 12.375C13.7625 12.375 15 11.1844 15 9.00937Z" />
</svg>
